<svg
                
                xmlns="http://www.w3.org/2000/svg"
                width="25"
                height="24"
                viewBox="0 0 25 24"
                fill="none"
                
              >
                <path
                  d="M12.0469 2C6.53687 2 2.04688 6.49 2.04688 12C2.04688 17.51 6.53687 22 12.0469 22C17.5569 22 22.0469 17.51 22.0469 12C22.0469 6.49 17.5569 2 12.0469 2ZM16.0469 12.75H12.7969V16C12.7969 16.41 12.4569 16.75 12.0469 16.75C11.6369 16.75 11.2969 16.41 11.2969 16V12.75H8.04688C7.63688 12.75 7.29688 12.41 7.29688 12C7.29688 11.59 7.63688 11.25 8.04688 11.25H11.2969V8C11.2969 7.59 11.6369 7.25 12.0469 7.25C12.4569 7.25 12.7969 7.59 12.7969 8V11.25H16.0469C16.4569 11.25 16.7969 11.59 16.7969 12C16.7969 12.41 16.4569 12.75 16.0469 12.75Z"
                  fill="#FF7565"
                />
              </svg>