 <svg
                  width="56"
                  height="56"
                  viewBox="0 0 48 48"
                  fill="none"
                  xmlns="http://www.w3.org/2000/svg"
                  
                >
                  <rect width="48" height="48" rx="20" fill="#E68B85" />
                  <path
                    d="M24 14C29.523 14 34 18.477 34 24C34.0021 26.6255 32.9715 29.1464 31.1309 31.0186C29.2902 32.8908 26.7872 33.9641 24.162 34.0066C21.5369 34.0491 19.0003 33.0576 17.1 31.246C15.1997 29.4344 14.088 26.9482 14.005 24.324L14 24L14.004 23.72C14.152 18.327 18.57 14 24 14Z"
                    fill="white"
                  />
                  <path
                    d="M24.0165 28.3911H24.0275"
                    stroke="#E68B85"
                    strokeWidth="2"
                    strokeLinecap="round"
                    strokeLinejoin="round"
                  />
                  <path
                    d="M24.0216 25.4804V25.2247C24.0216 24.3965 24.5331 23.9581 25.0446 23.6049C25.544 23.2639 26.0432 22.8255 26.0432 22.0217C26.0432 20.9013 25.142 20 24.0216 20C22.9012 20 22 20.9013 22 22.0217"
                    stroke="#E68B85"
                    strokeWidth="2"
                    strokeLinecap="round"
                    strokeLinejoin="round"
                  />
                </svg>